<svg xmlns="http://www.w3.org/2000/svg" version="1.1" xmlns:xlink="http://www.w3.org/1999/xlink" xmlns:svgjs="http://svgjs.dev/svgjs" width="1000" height="277" viewBox="0 0 1000 277"><g transform="matrix(1,0,0,1,-0.6060582495770745,-0.5276150574489691)"><svg viewBox="0 0 396 110" data-background-color="#ffffff" preserveAspectRatio="xMidYMid meet" height="277" width="1000" xmlns="http://www.w3.org/2000/svg" xmlns:xlink="http://www.w3.org/1999/xlink"><g id="tight-bounds" transform="matrix(1,0,0,1,0.23999906683252448,0.20952222497973594)"><svg viewBox="0 0 395.52 109.58095555004053" height="109.58095555004053" width="395.52"><g><svg viewBox="0 0 569.5248421723489 157.7899383463087" height="109.58095555004053" width="395.52"><g transform="matrix(1,0,0,1,174.00484217234896,44.552418837583886)"><svg viewBox="0 0 395.52 68.68510067114093" height="68.68510067114093" width="395.52"><g id="textblocktransform"><svg viewBox="0 0 395.52 68.68510067114093" height="68.68510067114093" width="395.52" id="textblock"><g><svg viewBox="0 0 395.52 68.68510067114093" height="68.68510067114093" width="395.52"><g transform="matrix(1,0,0,1,0,0)"><svg width="395.52" viewBox="0.4000000059604645 -31.049999237060547 178.77999877929688 31.049999237060547" height="68.68510067114093" data-palette-color="#6b7280"><path d="M18.8-31.05L24.5 0 16.15 0 15.2-4.9 9.3-4.9 8.35 0 0.4 0 6.1-31.05 18.8-31.05ZM10.4-10.75L14.25-10.75 12.5-21.85 12.15-21.85 10.4-10.75ZM48.35-21.2L48.35-21.2Q48.35-18.4 47.5-16.55 46.65-14.7 44.85-13.2L44.85-13.2 49 0 39.75 0 36.65-11.2 35.5-11.2 35.5 0 27.1 0 27.1-31.05 38.7-31.05Q43.7-31.05 46.02-28.7 48.35-26.35 48.35-21.2ZM36.8-16.45Q38.1-16.45 38.65-17.2 39.2-17.95 39.2-19.93 39.2-21.9 38.65-22.68 38.1-23.45 36.85-23.45L36.85-23.45 35.5-23.45 35.5-16.45 36.8-16.45ZM69.09-7L68.59 0 51.8 0 51.8-31.05 69.09-31.05 68.59-23.4 60.35-23.4 60.35-18.75 67.5-18.75 67.5-12.15 60.35-12.15 60.35-7 69.09-7ZM104.34-8.95L104.34-8.95Q104.34 0 94.74 0L94.74 0 82.49 0 82.49-31.05 94.49-31.05Q99.24-31.05 101.54-29.13 103.84-27.2 103.84-23 103.84-18.8 100.39-16.6L100.39-16.6 100.39-16.3Q104.34-14.75 104.34-8.95ZM92.74-5.55Q94.24-5.55 94.77-6.23 95.29-6.9 95.29-9.03 95.29-11.15 94.74-12.03 94.19-12.9 92.74-12.9L92.74-12.9 91.14-12.9 91.14-5.55 92.74-5.55ZM92.79-17.75Q93.94-17.75 94.39-18.45 94.84-19.15 94.84-20.93 94.84-22.7 94.37-23.43 93.89-24.15 92.74-24.15L92.74-24.15 91.14-24.15 91.14-17.75 92.79-17.75ZM123.84-31.05L129.54 0 121.19 0 120.24-4.9 114.34-4.9 113.39 0 105.44 0 111.14-31.05 123.84-31.05ZM115.44-10.75L119.29-10.75 117.54-21.85 117.19-21.85 115.44-10.75ZM153.99-8.95L153.99-8.95Q153.99 0 144.39 0L144.39 0 132.14 0 132.14-31.05 144.14-31.05Q148.89-31.05 151.19-29.13 153.49-27.2 153.49-23 153.49-18.8 150.04-16.6L150.04-16.6 150.04-16.3Q153.99-14.75 153.99-8.95ZM142.39-5.55Q143.89-5.55 144.41-6.23 144.94-6.9 144.94-9.03 144.94-11.15 144.39-12.03 143.84-12.9 142.39-12.9L142.39-12.9 140.79-12.9 140.79-5.55 142.39-5.55ZM142.44-17.75Q143.59-17.75 144.04-18.45 144.49-19.15 144.49-20.93 144.49-22.7 144.01-23.43 143.54-24.15 142.39-24.15L142.39-24.15 140.79-24.15 140.79-17.75 142.44-17.75ZM173.48-31.05L179.18 0 170.83 0 169.88-4.9 163.98-4.9 163.03 0 155.08 0 160.78-31.05 173.48-31.05ZM165.08-10.75L168.93-10.75 167.18-21.85 166.83-21.85 165.08-10.75Z" opacity="1" transform="matrix(1,0,0,1,0,0)" fill="#6b7280" class="wordmark-text-0" data-fill-palette-color="primary" id="text-0"></path></svg></g></svg></g></svg></g></svg></g><g><svg viewBox="0 0 157.7899383463087 157.7899383463087" height="157.7899383463087" width="157.7899383463087"><g><svg></svg></g><g id="icon-0"><svg viewBox="0 0 157.7899383463087 157.7899383463087" height="157.7899383463087" width="157.7899383463087"><g><rect width="143.47196245932884" height="143.47196245932884" x="7.158987943489933" y="7.158987943489933" fill="#000000" data-fill-palette-color="accent"></rect><rect width="143.47196245932884" height="143.47196245932884" x="14.317975886979863" y="2.6645352591003757e-15" fill="#000000" opacity="0.5" data-fill-palette-color="accent"></rect></g><g transform="matrix(1,0,0,1,20.454251267114095,23.63037724026846)"><svg viewBox="0 0 116.88143581208051 110.52918386577178" height="110.52918386577178" width="116.88143581208051"><g><svg xmlns="http://www.w3.org/2000/svg" xmlns:xlink="http://www.w3.org/1999/xlink" version="1.1" x="0" y="0" viewBox="4 8 92 87" style="enable-background:new 0 0 100 100;" xml:space="preserve" height="110.52918386577178" width="116.88143581208051" class="icon-s-0" data-fill-palette-color="background" id="s-0"><g fill="#ffffff" data-fill-palette-color="background"><g fill="#ffffff" data-fill-palette-color="background"><path d="M52.1 60.8c-1.1 0-1.9-1.2-1.9-2.8 0-1.5 0.9-2.8 1.9-2.8S54 56.5 54 58C54 59.6 53.2 60.8 52.1 60.8zM52.1 57c-0.4 0-0.8 0.5-0.8 1.1 0 0.6 0.3 1.1 0.8 1.1 0.4 0 0.8-0.5 0.8-1.1C52.9 57.4 52.5 57 52.1 57z" fill="#ffffff" data-fill-palette-color="background"></path></g></g><path d="M76 92V8H23v84H4v3h92v-3H76zM29 92V14h39.5L47 22v70H29zM48 92V23.2l23-8.4V92H48zM74 92h-2V13H28v79h-3V10h49V92z" fill="#ffffff" data-fill-palette-color="background"></path></svg></g></svg></g></svg></g></svg></g></svg></g><defs></defs></svg><rect width="395.52" height="109.58095555004053" fill="none" stroke="none" visibility="hidden"></rect></g></svg></g></svg>